REM DIRINDEX 1\2\3,1\2\4,1\2\5,1\2\6
REM DIRNAME cjc157,folder01,folder02,folder03,folder04,folder05
TITLE ""
FILE "127 127.mp3" MP3
  TRACK 01 AUDIO
    TITLE "0:"
    INDEX 01 00:00:00
  TRACK 02 AUDIO
    TITLE "3:cjc157_4745"
    INDEX 01 00:00:11
  TRACK 03 AUDIO
    TITLE "0:"
    INDEX 01 00:01:38
  TRACK 04 AUDIO
    TITLE "4:cjc157_4746"
    INDEX 01 00:02:06
  TRACK 05 AUDIO
    TITLE "0:"
    INDEX 01 00:03:21
  TRACK 06 AUDIO
    TITLE "5:cjc157_4747"
    INDEX 01 00:03:68
  TRACK 07 AUDIO
    TITLE "0:"
    INDEX 01 00:05:48
  TRACK 08 AUDIO
    TITLE "5:cjc157_4748"
    INDEX 01 00:06:24
  TRACK 09 AUDIO
    TITLE "0:"
    INDEX 01 00:08:66
  TRACK 10 AUDIO
    TITLE "3:cjc157_4749"
    INDEX 01 00:09:38
  TRACK 11 AUDIO
    TITLE "0:"
    INDEX 01 00:10:57
  TRACK 12 AUDIO
    TITLE "4:cjc157_4750"
    INDEX 01 00:11:27
  TRACK 13 AUDIO
    TITLE "0:"
    INDEX 01 00:12:42
  TRACK 14 AUDIO
    TITLE "5:cjc157_4751"
    INDEX 01 00:13:18
  TRACK 15 AUDIO
    TITLE "0:"
    INDEX 01 00:14:66
  TRACK 16 AUDIO
    TITLE "5:cjc157_4752"
    INDEX 01 00:15:38
  TRACK 17 AUDIO
    TITLE "0:"
    INDEX 01 00:18:17
  TRACK 18 AUDIO
    TITLE "3:cjc157_4753"
    INDEX 01 00:18:62
  TRACK 19 AUDIO
    TITLE "0:"
    INDEX 01 00:20:16
  TRACK 20 AUDIO
    TITLE "4:cjc157_4754"
    INDEX 01 00:20:63
  TRACK 21 AUDIO
    TITLE "0:"
    INDEX 01 00:22:03
  TRACK 22 AUDIO
    TITLE "5:cjc157_4755"
    INDEX 01 00:22:48
  TRACK 23 AUDIO
    TITLE "0:"
    INDEX 01 00:24:29
  TRACK 24 AUDIO
    TITLE "5:cjc157_4756"
    INDEX 01 00:25:05
  TRACK 25 AUDIO
    TITLE "0:"
    INDEX 01 00:27:22
  TRACK 26 AUDIO
    TITLE "3:cjc157_4757"
    INDEX 01 00:27:73
  TRACK 27 AUDIO
    TITLE "0:"
    INDEX 01 00:29:17
  TRACK 28 AUDIO
    TITLE "4:cjc157_4758"
    INDEX 01 00:29:62
  TRACK 29 AUDIO
    TITLE "0:"
    INDEX 01 00:30:71
  TRACK 30 AUDIO
    TITLE "5:cjc157_4759"
    INDEX 01 00:31:45
  TRACK 31 AUDIO
    TITLE "0:"
    INDEX 01 00:33:38
  TRACK 32 AUDIO
    TITLE "5:cjc157_4760"
    INDEX 01 00:34:16
  TRACK 33 AUDIO
    TITLE "0:"
    INDEX 01 00:36:07
  TRACK 34 AUDIO
    TITLE "5:cjc157_4761"
    INDEX 01 00:36:50
  TRACK 35 AUDIO
    TITLE "0:"
    INDEX 01 00:39:62
  TRACK 36 AUDIO
    TITLE "5:cjc157_4762"
    INDEX 01 00:40:34
  TRACK 37 AUDIO
    TITLE "0:"
    INDEX 01 00:43:50
  TRACK 38 AUDIO
    TITLE "3:cjc157_4763"
    INDEX 01 00:44:22
  TRACK 39 AUDIO
    TITLE "0:"
    INDEX 01 00:45:43
  TRACK 40 AUDIO
    TITLE "4:cjc157_4764"
    INDEX 01 00:46:13
  TRACK 41 AUDIO
    TITLE "0:"
    INDEX 01 00:47:27
  TRACK 42 AUDIO
    TITLE "5:cjc157_4765"
    INDEX 01 00:48:00
  TRACK 43 AUDIO
    TITLE "0:"
    INDEX 01 00:50:46
  TRACK 44 AUDIO
    TITLE "3:cjc157_4766"
    INDEX 01 00:51:15
  TRACK 45 AUDIO
    TITLE "0:"
    INDEX 01 00:52:47
  TRACK 46 AUDIO
    TITLE "4:cjc157_4767"
    INDEX 01 00:53:13
  TRACK 47 AUDIO
    TITLE "0:"
    INDEX 01 00:54:25
  TRACK 48 AUDIO
    TITLE "5:cjc157_4768"
    INDEX 01 00:54:72
  TRACK 49 AUDIO
    TITLE "0:"
    INDEX 01 00:58:13
  TRACK 50 AUDIO
    TITLE "5:cjc157_4769"
    INDEX 01 00:58:58
  TRACK 51 AUDIO
    TITLE "0:"
    INDEX 01 01:01:70
  TRACK 52 AUDIO
    TITLE "3:cjc157_4770"
    INDEX 01 01:02:40
  TRACK 53 AUDIO
    TITLE "0:"
    INDEX 01 01:03:43
  TRACK 54 AUDIO
    TITLE "4:cjc157_4771"
    INDEX 01 01:04:09
  TRACK 55 AUDIO
    TITLE "0:"
    INDEX 01 01:05:28
  TRACK 56 AUDIO
    TITLE "5:cjc157_4772"
    INDEX 01 01:06:00
  TRACK 57 AUDIO
    TITLE "0:"
    INDEX 01 01:08:38
  TRACK 58 AUDIO
    TITLE "3:cjc157_4773"
    INDEX 01 01:09:03
  TRACK 59 AUDIO
    TITLE "0:"
    INDEX 01 01:10:20
  TRACK 60 AUDIO
    TITLE "4:cjc157_4774"
    INDEX 01 01:10:61
  TRACK 61 AUDIO
    TITLE "0:"
    INDEX 01 01:11:70
  TRACK 62 AUDIO
    TITLE "5:cjc157_4775"
    INDEX 01 01:12:44
  TRACK 63 AUDIO
    TITLE "0:"
    INDEX 01 01:15:64
  TRACK 64 AUDIO
    TITLE "5:cjc157_4776"
    INDEX 01 01:16:34
  TRACK 65 AUDIO
    TITLE "0:"
    INDEX 01 01:18:51
  TRACK 66 AUDIO
    TITLE "3:cjc157_4777"
    INDEX 01 01:19:21
  TRACK 67 AUDIO
    TITLE "0:"
    INDEX 01 01:20:26
  TRACK 68 AUDIO
    TITLE "4:cjc157_4778"
    INDEX 01 01:21:00
  TRACK 69 AUDIO
    TITLE "0:"
    INDEX 01 01:22:17
  TRACK 70 AUDIO
    TITLE "5:cjc157_4779"
    INDEX 01 01:22:62
  TRACK 71 AUDIO
    TITLE "0:"
    INDEX 01 01:25:49
  TRACK 72 AUDIO
    TITLE "3:cjc157_4780"
    INDEX 01 01:26:19
  TRACK 73 AUDIO
    TITLE "0:"
    INDEX 01 01:27:28
  TRACK 74 AUDIO
    TITLE "4:cjc157_4781"
    INDEX 01 01:28:00
  TRACK 75 AUDIO
    TITLE "0:"
    INDEX 01 01:29:19
  TRACK 76 AUDIO
    TITLE "5:cjc157_4782"
    INDEX 01 01:29:68
  TRACK 77 AUDIO
    TITLE "0:"
    INDEX 01 01:32:25
  TRACK 78 AUDIO
    TITLE "5:cjc157_4783"
    INDEX 01 01:33:11
  TRACK 79 AUDIO
    TITLE "0:"
    INDEX 01 01:34:57
